# xmcd CD database file
#
# Track frame offsets:
#	150
#	21542
#	40260
#	59067
#	73700
#	97657
#	114022
#	131132
#	151177
#	165415
#
# Disc length: 2480 seconds
#
# Revision: 0
# Processed by: cddbd v1.5PL3 Copyright (c) Steve Scherf et al.
# Submitted via: CDex 1.51
#
DISCID=7d09ae0a
DTITLE=LUCA - CUSTOMIZE
DYEAR=1997
DGENRE=Rock
TTITLE0=edge
TTITLE1=Prayer
TTITLE2=Be Myself
TTITLE3=Place to go
TTITLE4=Fear
TTITLE5=PeP
TTITLE6=LOOM
TTITLE7=Because
TTITLE8=Relieve
TTITLE9=WHOLE LAND
EXTD=YEAR: 1997
EXTT0=
EXTT1=
EXTT2=
EXTT3=
EXTT4=
EXTT5=
EXTT6=
EXTT7=
EXTT8=
EXTT9=
PLAYORDER=
